<svg xmlns="http://www.w3.org/2000/svg" viewBox="0 0 190 100" width="190" height="100"><rect width="190" height="100" fill="#fff"/><g fill="#b22234"><rect width="190" height="7.7" y="0.0"/><rect width="190" height="7.7" y="15.4"/><rect width="190" height="7.7" y="30.8"/><rect width="190" height="7.7" y="46.1"/><rect width="190" height="7.7" y="61.5"/><rect width="190" height="7.7" y="76.9"/><rect width="190" height="7.7" y="92.3"/></g><rect width="76" height="53.8" fill="#3c3b6e"/><g fill="#fff"><circle cx="8" cy="7" r="2.1"/><circle cx="19" cy="7" r="2.1"/><circle cx="30" cy="7" r="2.1"/><circle cx="41" cy="7" r="2.1"/><circle cx="52" cy="7" r="2.1"/><circle cx="63" cy="7" r="2.1"/><circle cx="8" cy="17" r="2.1"/><circle cx="19" cy="17" r="2.1"/><circle cx="30" cy="17" r="2.1"/><circle cx="41" cy="17" r="2.1"/><circle cx="52" cy="17" r="2.1"/><circle cx="63" cy="17" r="2.1"/><circle cx="8" cy="27" r="2.1"/><circle cx="19" cy="27" r="2.1"/><circle cx="30" cy="27" r="2.1"/><circle cx="41" cy="27" r="2.1"/><circle cx="52" cy="27" r="2.1"/><circle cx="63" cy="27" r="2.1"/><circle cx="8" cy="37" r="2.1"/><circle cx="19" cy="37" r="2.1"/><circle cx="30" cy="37" r="2.1"/><circle cx="41" cy="37" r="2.1"/><circle cx="52" cy="37" r="2.1"/><circle cx="63" cy="37" r="2.1"/><circle cx="8" cy="47" r="2.1"/><circle cx="19" cy="47" r="2.1"/><circle cx="30" cy="47" r="2.1"/><circle cx="41" cy="47" r="2.1"/><circle cx="52" cy="47" r="2.1"/><circle cx="63" cy="47" r="2.1"/></g></svg>
